<svg xmlns="http://www.w3.org/2000/svg" width="66" height="66" viewBox="0 0 66 66">
  <g id="files" transform="translate(-0.15 -0.065)">
    <g id="Ellipse_2" data-name="Ellipse 2" transform="translate(0.15 0.065)" fill="#fff" stroke="#e3e3e3" stroke-width="1">
      <circle cx="33" cy="33" r="33" stroke="none"/>
      <circle cx="33" cy="33" r="32.5" fill="none"/>
    </g>
    <path id="Icon_awesome-file-medical" data-name="Icon awesome-file-medical" d="M24.012,6.688,17.776.446A1.528,1.528,0,0,0,16.694,0h-.389V8.152h8.152V7.764a1.523,1.523,0,0,0-.446-1.076ZM14.267,8.662V0H1.529A1.525,1.525,0,0,0,0,1.529V31.081a1.525,1.525,0,0,0,1.529,1.531h21.4a1.525,1.525,0,0,0,1.529-1.529V10.191H15.8a1.533,1.533,0,0,1-1.529-1.529Zm4.076,10.191V21.91a.511.511,0,0,1-.51.51H14.267v3.567a.511.511,0,0,1-.51.51H10.7a.511.511,0,0,1-.51-.51V22.416H6.624a.511.511,0,0,1-.51-.51V18.853a.511.511,0,0,1,.51-.51h3.567V14.777a.511.511,0,0,1,.51-.51h3.056a.511.511,0,0,1,.51.51v3.567h3.567A.511.511,0,0,1,18.343,18.853Z" transform="translate(21.076 16.563)" fill="#dc0000"/>
  </g>
</svg>
